<?xml version="1.0" encoding="utf-8"?>
<!-- Generator: Adobe Illustrator 25.2.0, SVG Export Plug-In . SVG Version: 6.00 Build 0)  -->
<svg version="1.1" id="Layer_1" xmlns="http://www.w3.org/2000/svg" xmlns:xlink="http://www.w3.org/1999/xlink" x="0px" y="0px"
	 viewBox="0 0 853 326.5" style="enable-background:new 0 0 853 326.5;" xml:space="preserve">
<style type="text/css">
	.st0{fill:#FCEE12;}
	.st1{fill:#4B4B4B;}
</style>
<path class="st0" d="M752.49,299.76H100.51c-20.54,0-37.18-16.65-37.18-37.18V63.93c0-20.54,16.65-37.18,37.18-37.18h651.98
	c20.54,0,37.18,16.65,37.18,37.18v198.65C789.67,283.11,773.03,299.76,752.49,299.76z"/>
<g>
	<path class="st1" d="M233.47,76.48c-7.64-3.05-15.9-4.58-24.15-4.58c-4.89,0-9.78,0.61-14.67,1.53l-19.72,33.91
		c8.1-4.43,17.12-6.57,26.44-6.42c5.65,0,11.16,0.76,16.51,2.29L233.47,76.48z M115.03,167.68c0,48.88,41.57,86.92,90.02,86.92
		c50.74,0,91.7-40.94,91.7-90.74c0-29.18-14.06-54.84-35-71.95l-15.28,26.43c13.45,11.46,21.24,28.26,21.24,45.98
		c0,33.91-28.12,61.72-62.66,61.72c-34.54,0-62.51-27.96-62.51-62.48v-0.15c0-4.13,0.31-8.25,1.07-12.22L115.03,167.68z
		 M397.92,127.51c-7.49-0.15-14.67,2.44-20.33,7.18l-1.53-5.5h-13.75V199h17.58v-37.89c0-8.1,5.35-16.19,15.74-16.19
		c8.1,0,12.84,5.65,12.84,15.28v38.96h17.58v-40.48C426.04,139.73,415.04,127.51,397.92,127.51 M601.95,127.51
		c-19.72,0-35.15,16.04-35.15,36.51c0,20.47,15.44,36.51,35.15,36.51c19.72,0,35.15-16.04,35.15-36.51
		C637.1,143.55,621.67,127.51,601.95,127.51 M619.37,164.02c0,11.15-7.34,19.25-17.27,19.25c-9.93,0-17.42-8.1-17.42-19.25
		c0-11.15,7.34-19.25,17.27-19.25C611.89,144.77,619.37,152.86,619.37,164.02 M498.03,127.51c-19.72,0-35.15,16.04-35.15,36.51
		c0,20.47,15.44,36.51,35.15,36.51c19.72,0,35.15-16.04,35.15-36.51C533.18,143.55,517.74,127.51,498.03,127.51 M515.29,164.02
		c0,11.15-7.34,19.25-17.27,19.25c-9.93,0-17.27-8.1-17.27-19.25c0-11.15,7.34-19.25,17.27-19.25
		C507.96,144.77,515.29,152.86,515.29,164.02 M709.85,127.51c-7.49-0.15-14.67,2.44-20.33,7.18l-1.53-5.5h-13.75V199h17.42v-37.89
		c0-8.1,5.35-16.19,15.74-16.19c8.1,0,12.99,5.65,12.99,15.28v38.96h17.58v-40.48C737.82,139.73,726.82,127.51,709.85,127.51"/>
</g>
</svg>
